# xmcd
#
# Track frame offsets: 
#        150
#        14870
#        33910
#        57983
#        77038
#        98220
#        114053
#        129388
#        154778
#        172775
#
# Disc length: 2493 seconds
#
# Revision: 2
# Processed by: cddbd v1.5.2PL0 Copyright (c) Steve Scherf et al.
# Submitted via: ExactAudioCopy v0.99pb4
#
DISCID=7109bb0a
DTITLE=Mike Griffin - Gimme What I Got Comin'
DYEAR=1993
DGENRE=Blues
TTITLE0=Give Me What I Got Comin'
TTITLE1=Been There, Done That
TTITLE2=Blues Will Never Die
TTITLE3=I Just Can't Get Enough
TTITLE4=Fifth of Whiskey, Case of the Blues
TTITLE5=Queen of New Orleans
TTITLE6=T.V. Mama
TTITLE7=Black Cat Scratchin'
TTITLE8=You Got the Best Thing
TTITLE9=Stretched Out
EXTD=
EXTT0=
EXTT1=
EXTT2=
EXTT3=
EXTT4=
EXTT5=
EXTT6=
EXTT7=
EXTT8=
EXTT9=
PLAYORDER=
